<?xml version="1.0" standalone="no"?>
<!DOCTYPE svg PUBLIC "-//W3C//DTD SVG 20010904//EN"
 "http://www.w3.org/TR/2001/REC-SVG-20010904/DTD/svg10.dtd">
<svg version="1.0" xmlns="http://www.w3.org/2000/svg"
 width="109" height="57" viewBox="0 0 300.000000 300.000000"
 preserveAspectRatio="xMidYMid meet">
<metadata>
Created by potrace 1.10, written by Peter Selinger 2001-2011
</metadata>
<g transform="translate(0.000000,300.000000) scale(0.100000,-0.100000)"
fill="#000000" stroke="none">
<path d="M650 1815 c-31 -18 -64 -19 -108 -3 -31 12 -35 11 -53 -11 -18 -22
-19 -43 -19 -301 0 -258 1 -279 19 -301 18 -22 22 -23 53 -11 45 16 70 15 104
-3 43 -22 392 -22 436 1 30 15 54 15 122 -2 54 -13 56 -1 56 317 0 254 -2 289
-17 304 -11 11 -24 15 -42 10 -63 -16 -90 -16 -119 -1 -43 22 -394 23 -432 1z
m-120 -30 c0 -12 14 -15 65 -15 51 0 65 3 65 15 0 13 29 15 205 15 176 0 205
-2 205 -15 0 -12 14 -15 65 -15 53 0 63 3 59 15 -4 10 0 15 15 15 21 0 21 -2
21 -300 0 -298 0 -300 -21 -300 -15 0 -19 5 -15 15 4 12 -6 15 -59 15 -51 0
-65 -3 -65 -15 0 -13 -29 -15 -205 -15 -176 0 -205 2 -205 15 0 12 -14 15 -65
15 -51 0 -65 -3 -65 -15 0 -8 -7 -15 -15 -15 -13 0 -15 40 -15 300 0 260 2
300 15 300 8 0 15 -7 15 -15z"/>
<path d="M530 1685 l0 -45 65 0 65 0 0 45 0 45 -65 0 -65 0 0 -45z"/>
<path d="M1070 1685 l0 -45 65 0 65 0 0 45 0 45 -65 0 -65 0 0 -45z"/>
<path d="M750 1510 l0 -152 53 31 c28 17 87 50 129 74 71 38 93 57 69 57 -9 0
-136 71 -218 122 l-33 20 0 -152z m120 44 c34 -20 59 -41 57 -47 -5 -16 -128
-87 -139 -81 -4 3 -8 41 -8 85 0 94 2 95 90 43z"/>
<path d="M530 1565 l0 -45 65 0 65 0 0 45 0 45 -65 0 -65 0 0 -45z"/>
<path d="M1070 1565 l0 -45 65 0 65 0 0 45 0 45 -65 0 -65 0 0 -45z"/>
<path d="M530 1435 l0 -45 65 0 65 0 0 45 0 45 -65 0 -65 0 0 -45z"/>
<path d="M1070 1435 l0 -45 65 0 65 0 0 45 0 45 -65 0 -65 0 0 -45z"/>
<path d="M530 1315 l0 -45 65 0 65 0 0 45 0 45 -65 0 -65 0 0 -45z"/>
<path d="M1070 1315 l0 -45 66 0 65 0 -3 43 -3 42 -62 3 -63 3 0 -46z"/>
<path d="M1576 1687 c-19 -27 -24 -333 -7 -365 8 -15 25 -21 86 -26 73 -7 79
-6 112 20 19 14 39 37 45 50 14 30 28 31 28 1 0 -30 27 -67 49 -67 31 0 44 28
49 108 3 54 9 81 20 90 25 19 37 14 55 -23 10 -21 31 -42 57 -55 54 -27 52
-43 -4 -35 -38 6 -46 4 -55 -13 -17 -31 -14 -39 23 -61 53 -33 108 -28 154 13
l38 34 16 -29 c10 -16 26 -29 36 -29 37 0 48 29 51 133 1 14 10 17 51 17 l50
0 0 -58 c0 -44 5 -63 18 -75 22 -20 43 -22 60 -5 17 17 17 339 0 356 -35 35
-75 -3 -80 -73 -3 -44 -6 -50 -27 -53 -12 -2 -34 -1 -47 2 -20 5 -24 13 -24
44 0 52 -20 87 -50 87 -38 0 -50 -36 -50 -156 l0 -106 -40 39 c-23 21 -47 38
-55 38 -8 0 -17 5 -21 12 -5 8 2 9 24 5 25 -5 36 -2 52 15 25 27 25 31 0 53
-27 24 -100 31 -136 12 -25 -13 -31 -13 -52 1 -19 12 -30 13 -52 5 -16 -6 -39
-8 -53 -6 -29 6 -57 -27 -58 -67 0 -24 -1 -24 -12 -5 -7 11 -27 35 -45 52 -27
27 -41 33 -77 33 l-44 0 -7 45 c-9 64 -50 86 -78 42z m52 -71 l-3 -73 37 19
c32 17 43 18 73 8 45 -15 65 -53 65 -122 0 -67 -26 -112 -74 -128 -29 -9 -40
-8 -67 6 -23 11 -34 13 -37 5 -2 -6 -10 -11 -18 -11 -12 0 -14 32 -14 185 0
181 0 185 21 185 19 0 20 -5 17 -74z m672 -28 l0 -73 77 2 78 1 -1 71 c0 68 1
71 23 71 l23 0 0 -170 0 -170 -23 0 c-23 0 -24 2 -19 80 l5 80 -82 0 -81 0 0
-80 c0 -73 -2 -80 -20 -80 -19 0 -20 7 -20 170 0 163 1 170 20 170 18 0 20 -7
20 -72z m-300 -28 c0 -13 -7 -20 -20 -20 -12 0 -32 -11 -45 -25 -23 -22 -25
-32 -25 -110 0 -78 -2 -85 -20 -85 -19 0 -20 7 -20 125 0 104 2 125 15 125 9
0 15 -9 15 -21 0 -20 1 -20 31 5 37 32 69 34 69 6z m155 6 c25 -11 33 -19 29
-30 -7 -19 -16 -20 -31 -5 -6 6 -26 9 -44 7 -28 -2 -34 -7 -34 -27 0 -13 7
-27 15 -32 8 -4 33 -16 55 -27 51 -24 66 -59 41 -97 -22 -33 -59 -47 -102 -39
-45 8 -69 27 -61 48 6 16 9 16 29 2 45 -32 120 -11 104 29 -3 9 -25 24 -49 34
-56 24 -77 46 -77 80 0 36 35 68 78 70 7 1 28 -6 47 -13z"/>
<path d="M1652 1524 c-19 -13 -22 -24 -22 -84 0 -75 11 -90 64 -90 56 0 90
112 50 168 -18 26 -59 29 -92 6z m68 -33 c16 -31 12 -76 -10 -96 -28 -26 -50
-5 -50 49 0 61 37 89 60 47z"/>
<path d="M1354 1586 c-17 -8 -34 -21 -37 -31 -9 -22 9 -55 30 -55 13 0 9 -8
-14 -32 -39 -41 -49 -79 -33 -119 20 -47 58 -61 141 -53 90 9 99 21 99 127 0
86 -16 136 -51 161 -28 19 -92 20 -135 2z m134 -42 c20 -22 22 -36 22 -125 0
-81 -3 -99 -15 -99 -8 0 -15 7 -15 16 0 9 -3 14 -7 12 -58 -30 -84 -37 -105
-29 -35 13 -50 36 -46 73 4 39 47 72 107 82 43 7 48 14 31 47 -13 23 -66 26
-97 4 -19 -13 -22 -13 -27 2 -8 20 -6 22 41 39 48 17 82 10 111 -22z"/>
<path d="M1414 1439 c-39 -11 -56 -31 -52 -61 4 -29 49 -36 84 -13 18 11 24
24 24 50 0 37 -4 39 -56 24z"/>
</g>
</svg>
